# AST/ASF file generated using VICON BodyLanguage
# -----------------------------------------------
:version 1.10
:name VICON
:units
  mass 1.0
  length 0.45
  angle deg
:documentation
   .ast/.asf automatically generated from VICON data using
   VICON BodyBuilder and BodyLanguage model FoxedUp or BRILLIANT.MOD
:root
   order TX TY TZ RX RY RZ
   axis XYZ
   position 0 0 0  
   orientation 0 0 0 
:bonedata
  begin
     id 1 
     name lhipjoint
     direction 0.577973 -0.728611 0.367523 
     length 2.48544 
     axis 0 0 0  XYZ
  end
  begin
     id 2 
     name lfemur
     direction 0.34202 -0.939693 0  
     length 7.1921  
     axis 0 0 20  XYZ
    dof rx ry rz
    limits (-160.0 20.0)
           (-70.0 70.0)
           (-60.0 70.0)
  end
  begin
     id 3 
     name ltibia
     direction 0.34202 -0.939693 0   
     length 7.71059   
     axis 0 0 20   XYZ
    dof rx
    limits (-10.0 170.0)
  end
  begin
     id 4 
     name lfoot
     direction 0.089538 -0.246004 0.965124   
     length 2.19909   
     axis -90 7.62852e-016 20   XYZ
    dof rx rz
    limits (-45.0 90.0)
           (-70.0 20.0)
  end
  begin
     id 5 
     name ltoes
     direction 1.53544e-011 -4.21829e-011 1   
     length 1.10116   
     axis -90 7.62852e-016 20   XYZ
    dof rx
    limits (-90.0 20.0)
  end
  begin
     id 6 
     name rhipjoint
     direction -0.554414 -0.743062 0.374812   
     length 2.4371  
     axis 0 0 0  XYZ 
  end
  begin
     id 7 
     name rfemur
     direction -0.34202 -0.939693 0   
     length 7.47254   
     axis 0 0 -20   XYZ
    dof rx ry rz
    limits (-160.0 20.0)
           (-70.0 70.0)
           (-70.0 60.0)
  end
  begin
     id 8 
     name rtibia
     direction -0.34202 -0.939693 0   
     length 7.65855   
     axis 0 0 -20   XYZ
    dof rx
    limits (-10.0 170.0)
 end
 begin
     id 9 
     name rfoot
     direction -0.133779 -0.367555 0.92033   
     length 2.43006  
     axis -90 -7.62852e-016 -20   XYZ
    dof rx rz
    limits (-45.0 90.0)
           (-20.0 70.0)
  end
  begin
     id 10 
     name rtoes
     direction -1.53563e-011 -4.21889e-011 1   
     length 1.19625   
     axis -90 -7.62852e-016 -20   XYZ
    dof rx
    limits (-90.0 20.0)
  end
  begin
     id 11 
     name lowerback
     direction 0.0249066 0.998043 -0.0573585   
     length 2.08485   
     axis 0 0 0   XYZ
    dof rx ry rz
    limits (-20.0 45.0)
           (-30.0 30.0)
           (-30.0 30.0)
  end
  begin
     id 12 
     name upperback
     direction 0.0237884 0.999673 0.00943178   
     length 2.08515   
     axis 0 0 0   XYZ
    dof rx ry rz
    limits (-20.0 45.0)
           (-30.0 30.0)
           (-30.0 30.0)
  end
  begin
     id 13 
     name thorax
     direction 0.0106671 0.999301 0.0358174   
     length 2.09037   
     axis 0 0 0   XYZ
    dof rx ry rz
    limits (-20.0 45.0)
           (-30.0 30.0)
           (-30.0 30.0)
  end
  begin
     id 14 
     name lowerneck
     direction -0.0580016 0.987052 0.149546   
     length 1.84454   
     axis 0 0 0   XYZ
    dof rx ry rz
    limits (-20.0 45.0)
           (-30.0 30.0)
           (-30.0 30.0)
  end
  begin
     id 15 
     name upperneck
     direction 0.079456 0.981963 -0.171567   
     length 1.88141   
     axis 0 0 0   XYZ
    dof rx ry rz
    limits (-20.0 45.0)
           (-30.0 30.0)
           (-30.0 30.0)
  end
  begin
     id 16
     name head
     direction 0.0262167 0.9967 -0.0768276  
     length 1.89541  
     axis 0 0 0   XYZ
    dof rx ry rz
    limits (-20.0 45.0)
           (-30.0 30.0)
           (-30.0 30.0)
  end
  begin
     id 17 
     name lclavicle
     direction 0.946135 0.322134 -0.0325326  
     length 3.949  
     axis 0 0 0   XYZ
    dof ry rz
    limits (-20.0 10.0)
           (0.0 20.0)
  end
  begin
     id 18 
     name lhumerus
     direction 1 -4.48964e-011 1.94005e-028   
     length 5.10995   
     axis 180 -30 -90   XYZ
    dof rx ry rz
    limits (-60.0 90.0)
           (-90.0 90.0)
           (-90.0 90.0)
  end
  begin
     id 19
     name lradius
     direction 1 -4.48976e-011 2.87852e-027   
     length 3.21207   
     axis 180 -30 -90   XYZ
    dof rx
    limits (-10.0 170.0)
  end
  begin
     id 20
     name lwrist
     direction 1 -4.48963e-011 1.9975e-027   
     length 1.60604   
     axis 2.96054e-016 90 90   XYZ
    dof ry
    limits (-180.0 0.0)
 end
  begin
     id 21 
     name lhand
     direction 1 -4.48919e-011 4.00227e-027   
     length 0.63349   
     axis -2.5488e-015 90 90   XYZ
    dof rx rz
    limits (-90.0 90.0)
           (-45.0 45.0)
  end
  begin
     id 22 
     name lfingers
     direction 1 -4.49037e-011 7.9652e-027   
     length 0.510736   
     axis -5.0975e-015 90 90   XYZ
    dof rx
    limits (0.0 90.0)
  end
  begin
     id 23
     name lthumb
     direction 0.707107 -6.34922e-011 0.707107   
     length 0.733318   
     axis -90 45 -4.48553e-014   XYZ
    dof rx rz
    limits (-45.0 45.0)
           (-45.0 45.0)
  end
  begin
     id 24 
     name rclavicle
     direction -0.940085 0.328911 -0.0897654   
     length 3.93848  
     axis 0 0 0   XYZ 
    dof ry rz
    limits (-10.0 20.0)
           (-20.0 0.0)
  end
  begin
     id 25 
     name rhumerus
     direction -1 -4.48958e-011 3.02044e-027  
     length 5.25109   
     axis 180 30 90   XYZ
    dof rx ry rz
    limits (-90.0 60.0)
           (-90.0 90.0)
           (-90.0 90.0)
  end
  begin
     id 26 
     name rradius
     direction -1 -4.4897e-011 9.78352e-028   
     length 3.28364   
     axis 180 30 90   XYZ
    dof rx
    limits (-10.0 170.0)
  end
  begin
     id 27 
     name rwrist
     direction -1 -4.48943e-011 1.99918e-027   
     length 1.64182   
     axis 2.96054e-016 -90 -90   XYZ
    dof ry
    limits (-180.0 0.0)
  end
  begin
     id 28
     name rhand
     direction -1 -4.49024e-011 3.98478e-027   
     length 0.599745   
     axis -2.5488e-015 -90 -90   XYZ
    dof rx rz
    limits (-90.0 90.0)
           (-45.0 45.0)
  end
  begin
     id 29
     name rfingers
     direction -1 -4.48914e-011 8.00621e-027   
     length 0.48353   
     axis -5.0975e-015 -90 -90   XYZ
    dof rx
    limits (0.0 90.0)
  end
  begin
     id 30
     name rthumb
     direction -0.707107 -6.34992e-011 0.707107   
     length 0.694255   
     axis -90 -45 4.48553e-014   XYZ
    dof rx rz
    limits (-45.0 45.0)
           (-45.0 45.0)
  end
:hierarchy
  begin
    root lhipjoint rhipjoint lowerback
    lhipjoint lfemur
    lfemur ltibia
    ltibia lfoot
    lfoot ltoes
    rhipjoint rfemur
    rfemur rtibia
    rtibia rfoot
    rfoot rtoes
    lowerback upperback
    upperback thorax
    thorax lowerneck lclavicle rclavicle
    lowerneck upperneck
    upperneck head
    lclavicle lhumerus
    lhumerus lradius
    lradius lwrist
    lwrist lhand lthumb
    lhand lfingers
    rclavicle rhumerus
    rhumerus rradius
    rradius rwrist
    rwrist rhand rthumb
    rhand rfingers
  end

#!OML:ASF E:\CV Data\Top Level 1\Subject 1\Session 1\player.ASF
:FULLY-SPECIFIED
:DEGREES
758
root 5.87448 17.1845 -8.99147 162.583 -80.9781 -162.182
lowerback 3.90766 2.99723 2.2276
upperback -0.535966 4.12273 1.00304
thorax -2.65543 2.02467 -0.464061
lowerneck -14.2699 15.069 -2.65113
upperneck 20.1556 20.4725 4.0103
head 7.84203 9.86499 3.79756
rclavicle -5.52878e-014 -1.59028e-014
rhumerus 134.704 143.939 73.7606
rradius 95.743
rwrist -9.61898
rhand -29.907 20.9518
rfingers 7.12502
rthumb -3.22766 -9.00348
lclavicle -5.52878e-014 -1.59028e-014
lhumerus -45.5502 -38.1837 114.336
lradius 92.7056
lwrist 29.4006
lhand -23.2047 15.8397
lfingers 7.12502
lthumb 3.2454 45.7947
rfemur -16.451 12.7983 25.1615
rtibia 40.8424
rfoot -22.845 0.326813
rtoes 12.656
lfemur -13.701 3.85423 -16.0176
ltibia 36.5839
lfoot -18.3232 4.24556
ltoes 1.25823
759
root 5.87417 17.1825 -8.99708 163.036 -80.8201 -162.683
lowerback 3.91456 3.00451 2.22708
upperback -0.53517 4.13237 0.989538
thorax -2.65731 2.02942 -0.478505
lowerneck -14.2736 15.0848 -2.63066
upperneck 20.184 20.4894 4.01616
head 7.85302 9.8736 3.80058
rclavicle -4.86207e-014 -1.93815e-015
rhumerus 134.709 143.816 73.762
rradius 95.7668
rwrist -9.74285
rhand -30.1366 20.8998
rfingers 7.12502
rthumb -3.44934 -9.05205
lclavicle -4.86207e-014 -1.93815e-015
lhumerus -45.5121 -38.173 114.296
lradius 92.7081
lwrist 29.484
lhand -22.9316 15.7672
lfingers 7.12502
lthumb 3.50914 45.718
rfemur -16.4355 12.8973 25.1705
rtibia 40.8952
rfoot -22.8469 0.384911
rtoes 12.7364
lfemur -13.6116 3.91594 -16.0198
ltibia 36.5777
lfoot -18.3311 4.33231
ltoes 1.23976
760
root 5.87465 17.1804 -9.0034 163.442 -80.6788 -163.135
lowerback 3.92841 3.00973 2.22525
upperback -0.534755 4.13941 0.974589
thorax -2.66351 2.03283 -0.493992
lowerneck -14.2895 15.0991 -2.59185
upperneck 20.2258 20.5021 4.01698
head 7.87327 9.88016 3.80179
rclavicle -1.02234e-014 8.00108e-015
rhumerus 134.723 143.709 73.762
rradius 95.7985
rwrist -9.88341
rhand -30.3514 20.7973
rfingers 7.12502
rthumb -3.65684 -9.15111
lclavicle -1.02234e-014 8.00108e-015
lhumerus -45.4605 -38.1771 114.253
lradius 92.6921
lwrist 29.566
lhand -22.7767 15.7467
lfingers 7.12502
lthumb 3.6587 45.695
rfemur -16.4226 12.9929 25.183
rtibia 40.9493
rfoot -22.845 0.422953
rtoes 12.7877
lfemur -13.5314 3.96772 -16.0202
ltibia 36.5775
lfoot -18.3362 4.41684
ltoes 1.1869
761
root 5.87594 17.1783 -9.01047 163.801 -80.555 -163.542
lowerback 3.94944 3.01134 2.22021
upperback -0.534092 4.14168 0.95905
thorax -2.67378 2.03385 -0.508446
lowerneck -14.3107 15.1123 -2.54553
upperneck 20.2727 20.512 4.017
head 7.89719 9.88552 3.80256
rclavicle -3.76938e-014 -2.38542e-015
rhumerus 134.748 143.616 73.7605
rradius 95.8377
rwrist -10.0766
rhand -30.5113 20.6511
rfingers 7.12502
rthumb -3.81121 -9.29456
lclavicle -3.76938e-014 -2.38542e-015
lhumerus -45.3946 -38.1942 114.203
lradius 92.6615
lwrist 29.6396
lhand -22.6846 15.7494
lfingers 7.12502
lthumb 3.74764 45.6962
rfemur -16.4115 13.0848 25.1985
rtibia 41.0044
rfoot -22.8406 0.444076
rtoes 12.8162
lfemur -13.4619 4.02229 -16.0171
ltibia 36.5859
lfoot -18.3399 4.4826
ltoes 1.10261
762
root 5.87826 17.176 -9.01861 164.105 -80.4487 -163.888
lowerback 3.97207 3.0084 2.20681
upperback -0.534413 4.13772 0.952034
thorax -2.68732 2.03189 -0.509335
lowerneck -14.3248 15.125 -2.52208
upperneck 20.3121 20.5247 4.02253
head 7.91417 9.89171 3.80656
rclavicle 2.39155e-014 5.01931e-015
rhumerus 134.781 143.527 73.7686
rradius 95.8805
rwrist -10.3199
rhand -30.6279 20.5171
rfingers 7.12502
rthumb -3.92378 -9.42653
lclavicle 2.39155e-014 5.01931e-015
lhumerus -45.3165 -38.2008 114.16
lradius 92.6202
lwrist 29.6904
lhand -22.6502 15.7391
lfingers 7.12502
lthumb 3.78092 45.6853
rfemur -16.4083 13.1732 25.2212
rtibia 41.0602
rfoot -22.8327 0.449317
rtoes 12.8315
lfemur -13.412 4.1091 -16.0008
ltibia 36.605
lfoot -18.3474 4.49096
ltoes 1.03874
763
root 5.88177 17.1737 -9.02782 164.353 -80.3613 -164.173
lowerback 3.99925 3.00275 2.18528
upperback -0.534372 4.12997 0.949094
thorax -2.70399 2.02814 -0.501587
lowerneck -14.3337 15.1313 -2.54202
upperneck 20.333 20.5317 4.0549
head 7.91639 9.89634 3.82104
rclavicle 1.08182e-014 -9.39258e-015
rhumerus 134.832 143.453 73.7893
rradius 95.9246
rwrist -10.5784
rhand -30.6551 20.3769
rfingers 7.12502
rthumb -3.95004 -9.56623
lclavicle 1.08182e-014 -9.39258e-015
lhumerus -45.2298 -38.2015 114.123
lradius 92.5742
lwrist 29.6964
lhand -22.6746 15.7036
lfingers 7.12502
lthumb 3.75736 45.6502
rfemur -16.4128 13.2563 25.2508
rtibia 41.1168
rfoot -22.8222 0.442939
rtoes 12.866
lfemur -13.383 4.23397 -15.9713
ltibia 36.6355
lfoot -18.3566 4.43916
ltoes 0.965274
764
root 5.88638 17.1714 -9.03797 164.542 -80.291 -164.399
lowerback 4.03142 2.99561 2.16177
upperback -0.53327 4.12031 0.950057
thorax -2.72284 2.02346 -0.488889
lowerneck -14.3361 15.1379 -2.57119
upperneck 20.3497 20.541 4.08604
head 7.91515 9.9015 3.83548
rclavicle -3.91777e-014 -2.5345e-015
rhumerus 134.895 143.394 73.825
rradius 95.9654
rwrist -10.7962
rhand -30.6262 20.2741
rfingers 7.12502
rthumb -3.92218 -9.66956
lclavicle -3.91777e-014 -2.5345e-015
lhumerus -45.1481 -38.2032 114.095
lradius 92.5401
lwrist 29.6589
lhand -22.6625 15.6023
lfingers 7.12502
lthumb 3.76907 45.5488
rfemur -16.421 13.3315 25.2881
rtibia 41.174
rfoot -22.8108 0.430228
rtoes 12.9175
lfemur -13.3685 4.37174 -15.9296
ltibia 36.6755
lfoot -18.3673 4.34645
ltoes 0.932081
765
root 5.89215 17.1688 -9.049 164.672 -80.2389 -164.566
lowerback 4.07316 2.98852 2.14213
upperback -0.531248 4.11105 0.946735
thorax -2.7455 2.01887 -0.483258
lowerneck -14.3364 15.139 -2.59769
upperneck 20.3577 20.541 4.1211
head 7.91079 9.90335 3.84918
rclavicle -1.51371e-014 -5.61567e-015
rhumerus 134.978 143.358 73.8692
rradius 95.9923
rwrist -10.8982
rhand -30.5563 20.1973
rfingers 7.12502
rthumb -3.85465 -9.74762
lclavicle -1.51371e-014 -5.61567e-015
lhumerus -45.0787 -38.2141 114.067
lradius 92.5233
lwrist 29.5762
lhand -22.7174 15.4705
lfingers 7.12502
lthumb 3.71602 45.4178
rfemur -16.4327 13.3921 25.3325
rtibia 41.2315
rfoot -22.796 0.415606
rtoes 12.9821
lfemur -13.3657 4.505 -15.8792
ltibia 36.7224
lfoot -18.3737 4.24241
ltoes 0.873693
766
root 5.89891 17.1663 -9.06091 164.785 -80.2041 -164.715
lowerback 4.12395 2.98064 2.11699
upperback -0.527331 4.10061 0.93916
thorax -2.77138 2.01372 -0.479319
lowerneck -14.348 15.1383 -2.59715
upperneck 20.3715 20.5352 4.14578
head 7.91469 9.90273 3.85782
rclavicle 1.06878e-014 1.07841e-014
rhumerus 135.077 143.33 73.9179
rradius 95.9983
rwrist -10.8306
rhand -30.4931 20.1441
rfingers 7.12502
rthumb -3.79361 -9.80186
lclavicle 1.06878e-014 1.07841e-014
lhumerus -45.0167 -38.2227 114.039
lradius 92.5236
lwrist 29.4611
lhand -22.8517 15.3866
lfingers 7.12502
lthumb 3.58629 45.3361
rfemur -16.447 13.4416 25.3763
rtibia 41.2882
rfoot -22.7781 0.401131
rtoes 13.0665
lfemur -13.37 4.60973 -15.8297
ltibia 36.7724
lfoot -18.3759 4.14831
ltoes 0.824468
767
root 5.90682 17.1639 -9.07356 164.863 -80.1894 -164.833
lowerback 4.19031 2.97023 2.10048
upperback -0.521575 4.08736 0.919921
thorax -2.80271 2.00691 -0.492749
lowerneck -14.3675 15.1369 -2.57667
upperneck 20.386 20.5241 4.17092
head 7.92247 9.90091 3.86468
rclavicle -4.29243e-014 -6.4605e-016
rhumerus 135.194 143.315 73.9598
rradius 95.9803
rwrist -10.5768
rhand -30.4636 20.1074
rfingers 7.12502
rthumb -3.76519 -9.83907
lclavicle -4.29243e-014 -6.4605e-016
lhumerus -44.9604 -38.2392 113.996
lradius 92.5437
lwrist 29.3324
lhand -22.9893 15.3222
lfingers 7.12502
lthumb 3.45343 45.274
rfemur -16.4608 13.4749 25.421
rtibia 41.3434
rfoot -22.7572 0.384358
rtoes 13.1527
lfemur -13.3769 4.66755 -15.7823
ltibia 36.8232
lfoot -18.3714 4.0846
ltoes 0.765224
